<mxfile host="app.diagrams.net" modified="2023-12-12T08:11:22.727Z" agent="Mozilla/5.0 (Windows NT 10.0; Win64; x64) AppleWebKit/537.36 (KHTML, like Gecko) Chrome/119.0.0.0 Safari/537.36 Edg/119.0.0.0" version="22.1.7" etag="HQhnUfAC4m0xh_a_JESM" type="github">
  <diagram name="Page-1" id="sZEWLZyC40V6LwZpWhND">
    <mxGraphModel>
      <root>
        <mxCell id="0" />
        <mxCell id="1" parent="0" />
      </root>
    </mxGraphModel>
  </diagram>
</mxfile>
